<mxfile host="app.diagrams.net" modified="2023-08-03T18:57:12.690Z" agent="Mozilla/5.0 (Macintosh; Intel Mac OS X 10_15_7) AppleWebKit/537.36 (KHTML, like Gecko) Chrome/115.0.0.0 Safari/537.36" version="21.6.6" etag="DR-lezibO6UIL6fXux_q" type="github">
  <diagram name="Page-1" id="e1Dxu8COkglOYd9-DKeL">
    <mxGraphModel>
      <root>
        <mxCell id="0" />
        <mxCell id="1" parent="0" />
      </root>
    </mxGraphModel>
  </diagram>
</mxfile>
